<svg width="680" height="464" viewBox="0 0 680 464" fill="none" xmlns="http://www.w3.org/2000/svg">
<g clip-path="url(#clip0_90_16)">
<path d="M150.682 46.4429H107.317C103.148 46.4466 99.1507 48.0507 96.2027 50.9031C93.2547 53.7555 91.5969 57.6231 91.5931 61.657V107.147C91.0387 107.115 90.4843 107.067 89.938 107.003C79.6644 105.957 69.8971 102.155 61.7373 96.0257C53.5775 89.8962 47.3497 81.683 43.756 72.312C40.1623 62.9411 39.3457 52.7851 41.3982 42.9892C43.4508 33.1932 48.2908 24.1468 55.3726 16.87C62.4545 9.59319 71.4965 4.37531 81.4793 1.80466C91.462 -0.765988 101.988 -0.587173 111.872 2.32096C121.755 5.22909 130.602 10.7509 137.416 18.2638C144.229 25.7766 148.738 34.9818 150.434 44.8415C150.525 45.3699 150.608 45.9065 150.682 46.4429Z" fill="#F2F2F2"/>
<path d="M662.621 44.8414H107.317C102.709 44.8463 98.2919 46.6195 95.0338 49.772C91.7757 52.9244 89.943 57.1987 89.938 61.657V345.119C89.943 349.577 91.7757 353.852 95.0338 357.004C98.2919 360.157 102.709 361.93 107.317 361.935H662.621C667.229 361.93 671.646 360.157 674.904 357.004C678.162 353.852 679.995 349.577 680 345.119V61.657C679.995 57.1987 678.162 52.9244 674.904 49.772C671.646 46.6195 667.229 44.8463 662.621 44.8414ZM678.345 345.119C678.341 349.153 676.683 353.021 673.735 355.873C670.787 358.725 666.79 360.33 662.621 360.333H107.317C103.148 360.33 99.1507 358.725 96.2027 355.873C93.2548 353.021 91.5969 349.153 91.5931 345.119V61.657C91.5969 57.6231 93.2548 53.7554 96.2027 50.903C99.1507 48.0506 103.148 46.4466 107.317 46.4429H662.621C666.79 46.4466 670.787 48.0506 673.735 50.903C676.683 53.7554 678.341 57.6231 678.345 61.657V345.119Z" fill="#3F3D56"/>
<path d="M635.311 90.7797H134.627C134.408 90.7797 134.197 90.6954 134.042 90.5452C133.887 90.395 133.8 90.1913 133.8 89.979C133.8 89.7666 133.887 89.5629 134.042 89.4128C134.197 89.2626 134.408 89.1782 134.627 89.1782H635.311C635.53 89.1782 635.741 89.2626 635.896 89.4128C636.051 89.5629 636.139 89.7666 636.139 89.979C636.139 90.1913 636.051 90.395 635.896 90.5452C635.741 90.6954 635.53 90.7797 635.311 90.7797Z" fill="#3F3D56"/>
<path d="M276.143 327.503C275.923 327.503 275.713 327.418 275.557 327.268C275.402 327.118 275.315 326.914 275.315 326.702V63.2585C275.315 63.0461 275.402 62.8425 275.557 62.6923C275.713 62.5421 275.923 62.4578 276.143 62.4578C276.362 62.4578 276.572 62.5421 276.728 62.6923C276.883 62.8425 276.97 63.0461 276.97 63.2585V326.702C276.97 326.914 276.883 327.118 276.728 327.268C276.572 327.418 276.362 327.503 276.143 327.503Z" fill="#3F3D56"/>
<path d="M401.107 327.503C400.887 327.503 400.677 327.418 400.521 327.268C400.366 327.118 400.279 326.914 400.279 326.702V63.2585C400.279 63.0461 400.366 62.8425 400.521 62.6923C400.677 62.5421 400.887 62.4578 401.107 62.4578C401.326 62.4578 401.537 62.5421 401.692 62.6923C401.847 62.8425 401.934 63.0461 401.934 63.2585V326.702C401.934 326.914 401.847 327.118 401.692 327.268C401.537 327.418 401.326 327.503 401.107 327.503Z" fill="#3F3D56"/>
<path d="M526.071 327.503C525.851 327.503 525.641 327.418 525.486 327.268C525.33 327.118 525.243 326.914 525.243 326.702V63.2585C525.243 63.0461 525.33 62.8425 525.486 62.6923C525.641 62.5421 525.851 62.4578 526.071 62.4578C526.29 62.4578 526.501 62.5421 526.656 62.6923C526.811 62.8425 526.898 63.0461 526.898 63.2585V326.702C526.898 326.914 526.811 327.118 526.656 327.268C526.501 327.418 526.29 327.503 526.071 327.503Z" fill="#3F3D56"/>
<path d="M195.798 173.43H165.558C164.571 173.429 163.624 173.049 162.926 172.374C162.228 171.698 161.835 170.782 161.834 169.827V135.299C161.835 134.344 162.228 133.428 162.926 132.753C163.624 132.077 164.571 131.697 165.558 131.696H195.798C196.785 131.697 197.732 132.077 198.43 132.753C199.128 133.428 199.521 134.344 199.522 135.299V169.827C199.521 170.782 199.128 171.698 198.43 172.374C197.732 173.049 196.785 173.429 195.798 173.43Z" fill="#6C63FF"/>
<path d="M238.832 271.921H208.592C207.605 271.92 206.658 271.54 205.96 270.865C205.262 270.189 204.869 269.273 204.868 268.318V233.79C204.869 232.835 205.262 231.919 205.96 231.244C206.658 230.568 207.605 230.188 208.592 230.187H238.832C239.819 230.188 240.766 230.568 241.464 231.244C242.162 231.919 242.555 232.835 242.556 233.79V268.318C242.555 269.273 242.162 270.189 241.464 270.865C240.766 271.54 239.819 271.92 238.832 271.921Z" fill="#6C63FF"/>
<path d="M336.486 194.25H306.246C305.259 194.248 304.312 193.868 303.614 193.193C302.916 192.517 302.523 191.602 302.522 190.646V156.119C302.523 155.163 302.916 154.247 303.614 153.572C304.312 152.896 305.259 152.516 306.246 152.515H336.486C337.473 152.516 338.42 152.896 339.118 153.572C339.816 154.247 340.209 155.163 340.21 156.119V190.646C340.209 191.602 339.816 192.517 339.118 193.193C338.42 193.868 337.473 194.248 336.486 194.25Z" fill="#6C63FF"/>
<path d="M463.105 156.615H432.866C431.878 156.614 430.932 156.234 430.234 155.558C429.535 154.883 429.143 153.967 429.142 153.011V118.484C429.143 117.528 429.535 116.613 430.234 115.937C430.932 115.262 431.878 114.882 432.866 114.88H463.105C464.093 114.882 465.039 115.262 465.737 115.937C466.436 116.613 466.828 117.528 466.829 118.484V153.011C466.828 153.967 466.436 154.883 465.737 155.558C465.039 156.234 464.093 156.614 463.105 156.615Z" fill="#6C63FF"/>
<path d="M579.794 156.615H549.554C548.567 156.614 547.62 156.234 546.922 155.558C546.224 154.883 545.831 153.967 545.83 153.011V118.484C545.831 117.528 546.224 116.613 546.922 115.937C547.62 115.262 548.567 114.882 549.554 114.88H579.794C580.781 114.882 581.727 115.262 582.426 115.937C583.124 116.613 583.517 117.528 583.518 118.484V153.011C583.517 153.967 583.124 154.883 582.426 155.558C581.727 156.234 580.781 156.614 579.794 156.615Z" fill="#6C63FF"/>
<path d="M633.586 166.224H603.346C602.359 166.223 601.412 165.843 600.714 165.167C600.016 164.492 599.623 163.576 599.622 162.62V128.093C599.623 127.137 600.016 126.221 600.714 125.546C601.412 124.87 602.359 124.49 603.346 124.489H633.586C634.573 124.49 635.52 124.87 636.218 125.546C636.916 126.221 637.309 127.137 637.31 128.093V162.62C637.309 163.576 636.916 164.492 636.218 165.167C635.52 165.843 634.573 166.223 633.586 166.224Z" fill="#E6E6E6"/>
<path d="M609.586 227.881H579.347C578.359 227.88 577.413 227.5 576.715 226.824C576.016 226.149 575.624 225.233 575.623 224.277V189.75C575.624 188.794 576.016 187.878 576.715 187.203C577.413 186.527 578.359 186.147 579.347 186.146H609.586C610.574 186.147 611.52 186.527 612.218 187.203C612.917 187.878 613.309 188.794 613.31 189.75V224.277C613.309 225.233 612.917 226.149 612.218 226.824C611.52 227.5 610.574 227.88 609.586 227.881Z" fill="#E6E6E6"/>
<path d="M506.967 215.069H476.727C475.74 215.068 474.793 214.688 474.095 214.012C473.397 213.337 473.004 212.421 473.003 211.465V176.938C473.004 175.982 473.397 175.067 474.095 174.391C474.793 173.716 475.74 173.336 476.727 173.334H506.967C507.954 173.336 508.901 173.716 509.599 174.391C510.297 175.067 510.69 175.982 510.691 176.938V211.465C510.69 212.421 510.297 213.337 509.599 214.012C508.901 214.688 507.954 215.068 506.967 215.069Z" fill="#FF6584"/>
<path d="M448.209 227.881H417.969C416.982 227.88 416.035 227.5 415.337 226.824C414.639 226.149 414.246 225.233 414.245 224.277V189.75C414.246 188.794 414.639 187.878 415.337 187.203C416.035 186.527 416.982 186.147 417.969 186.146H448.209C449.196 186.147 450.143 186.527 450.841 187.203C451.539 187.878 451.932 188.794 451.933 189.75V224.277C451.932 225.233 451.539 226.149 450.841 226.824C450.143 227.5 449.196 227.88 448.209 227.881Z" fill="#E6E6E6"/>
<path d="M321.59 282.331H291.35C290.363 282.33 289.416 281.95 288.718 281.274C288.02 280.599 287.627 279.683 287.626 278.728V244.2C287.627 243.245 288.02 242.329 288.718 241.653C289.416 240.978 290.363 240.598 291.35 240.597H321.59C322.577 240.598 323.524 240.978 324.222 241.653C324.92 242.329 325.313 243.245 325.314 244.2V278.728C325.313 279.683 324.92 280.599 324.222 281.274C323.524 281.95 322.577 282.33 321.59 282.331Z" fill="#E6E6E6"/>
<path d="M168.488 236.689H138.248C137.261 236.688 136.314 236.308 135.616 235.632C134.918 234.957 134.525 234.041 134.524 233.085V198.558C134.525 197.602 134.918 196.687 135.616 196.011C136.314 195.335 137.261 194.956 138.248 194.954H168.488C169.475 194.956 170.422 195.335 171.12 196.011C171.818 196.687 172.211 197.602 172.212 198.558V233.085C172.211 234.041 171.818 234.957 171.12 235.632C170.422 236.308 169.475 236.688 168.488 236.689Z" fill="#FF6584"/>
<path d="M253.728 173.43H223.489C222.501 173.429 221.555 173.049 220.857 172.374C220.158 171.698 219.766 170.782 219.765 169.827V135.299C219.766 134.344 220.158 133.428 220.857 132.753C221.555 132.077 222.501 131.697 223.489 131.696H253.728C254.716 131.697 255.662 132.077 256.361 132.753C257.059 133.428 257.451 134.344 257.452 135.299V169.827C257.451 170.782 257.059 171.698 256.361 172.374C255.662 173.049 254.716 173.429 253.728 173.43Z" fill="#E6E6E6"/>
<path d="M228.971 77.6718H181.799C180.921 77.6718 180.079 77.3343 179.458 76.7337C178.837 76.133 178.489 75.3183 178.489 74.4688C178.489 73.6194 178.837 72.8047 179.458 72.204C180.079 71.6033 180.921 71.2659 181.799 71.2659H228.971C229.849 71.2659 230.691 71.6033 231.311 72.204C231.932 72.8047 232.281 73.6194 232.281 74.4688C232.281 75.3183 231.932 76.133 231.311 76.7337C230.691 77.3343 229.849 77.6718 228.971 77.6718Z" fill="#CCCCCC"/>
<path d="M362.211 77.6718H315.039C314.161 77.6718 313.319 77.3343 312.698 76.7337C312.077 76.133 311.729 75.3183 311.729 74.4688C311.729 73.6194 312.077 72.8047 312.698 72.204C313.319 71.6033 314.161 71.2659 315.039 71.2659H362.211C363.089 71.2659 363.931 71.6033 364.551 72.204C365.172 72.8047 365.521 73.6194 365.521 74.4688C365.521 75.3183 365.172 76.133 364.551 76.7337C363.931 77.3343 363.089 77.6718 362.211 77.6718Z" fill="#CCCCCC"/>
<path d="M487.175 77.6718H440.003C439.125 77.6718 438.283 77.3343 437.662 76.7337C437.041 76.133 436.693 75.3183 436.693 74.4688C436.693 73.6194 437.041 72.8047 437.662 72.204C438.283 71.6033 439.125 71.2659 440.003 71.2659H487.175C488.053 71.2659 488.895 71.6033 489.516 72.204C490.136 72.8047 490.485 73.6194 490.485 74.4688C490.485 75.3183 490.136 76.133 489.516 76.7337C488.895 77.3343 488.053 77.6718 487.175 77.6718Z" fill="#CCCCCC"/>
<path d="M603.863 77.6718H556.691C555.813 77.6718 554.971 77.3343 554.35 76.7337C553.73 76.133 553.381 75.3183 553.381 74.4688C553.381 73.6194 553.73 72.8047 554.35 72.204C554.971 71.6033 555.813 71.2659 556.691 71.2659H603.863C604.741 71.2659 605.583 71.6033 606.204 72.204C606.825 72.8047 607.173 73.6194 607.173 74.4688C607.173 75.3183 606.825 76.133 606.204 76.7337C605.583 77.3343 604.741 77.6718 603.863 77.6718Z" fill="#CCCCCC"/>
<path d="M123.316 312.202C122.106 312.087 120.936 311.717 119.889 311.117C118.842 310.518 117.943 309.703 117.257 308.731C116.57 307.759 116.113 306.654 115.916 305.492C115.718 304.33 115.787 303.141 116.116 302.008L94.9033 282.901L106.119 280.148L126.979 296.518C128.91 297.18 130.523 298.504 131.512 300.239C132.501 301.975 132.799 304.001 132.347 305.934C131.896 307.867 130.727 309.573 129.063 310.728C127.398 311.883 125.354 312.408 123.316 312.202Z" fill="#FFB8B8"/>
<path d="M152.608 453.422H162.754L167.581 415.556H152.607L152.608 453.422Z" fill="#FFB8B8"/>
<path d="M182.322 462.536L150.435 462.538L150.434 450.617L170.001 450.616C173.269 450.616 176.402 451.872 178.713 454.107C181.023 456.343 182.322 459.375 182.322 462.536Z" fill="#2F2E41"/>
<path d="M83.0432 446.333L92.8483 448.859L107.58 413.469L93.1099 409.743L83.0432 446.333Z" fill="#FFB8B8"/>
<path d="M109.333 462.539L78.5194 454.603L81.6883 443.084L100.597 447.954C103.755 448.767 106.449 450.76 108.087 453.496C109.726 456.231 110.174 459.484 109.333 462.539Z" fill="#2F2E41"/>
<path d="M165.483 446.252H150.001C149.023 446.256 148.08 445.905 147.356 445.268C146.632 444.632 146.18 443.757 146.09 442.815L136.692 348.382C136.623 347.69 136.307 347.042 135.799 346.549C135.291 346.057 134.622 345.751 133.906 345.683C133.19 345.615 132.472 345.79 131.875 346.178C131.278 346.566 130.839 347.143 130.633 347.81L103.345 436.051C103.056 436.989 102.405 437.783 101.526 438.267C100.647 438.751 99.6088 438.888 98.6279 438.65L84.2255 435.166C83.7228 435.044 83.2499 434.827 82.8341 434.528C82.4183 434.229 82.0677 433.854 81.8025 433.423C81.5374 432.992 81.3628 432.515 81.2891 432.019C81.2153 431.523 81.2437 431.017 81.3726 430.532C81.6078 429.642 104.885 341.627 105.088 340.722C110.362 303.113 116.671 293.035 120.061 287.621C120.342 287.173 120.6 286.761 120.832 286.372C121.122 285.885 122.911 281.051 124.046 277.912C124.193 277.402 124.448 276.926 124.795 276.516C125.142 276.106 125.573 275.769 126.061 275.528C140.304 268.48 156.969 273.359 161.737 275.022C162.528 275.292 163.206 275.802 163.672 276.476C177.976 297.352 170.957 418.6 169.404 442.694C169.339 443.658 168.898 444.562 168.17 445.223C167.442 445.884 166.481 446.252 165.483 446.252Z" fill="#2F2E41"/>
<path d="M125.53 207.06C136.756 207.06 145.856 198.254 145.856 187.393C145.856 176.531 136.756 167.726 125.53 167.726C114.304 167.726 105.204 176.531 105.204 187.393C105.204 198.254 114.304 207.06 125.53 207.06Z" fill="#FFB8B8"/>
<path d="M123.377 281.731L123.231 281.594C122.957 281.337 95.8745 255.666 99.3794 231.928C100.878 221.775 109.368 215.288 123.932 213.167C129.282 212.398 134.739 213.523 139.3 216.336C143.861 219.149 147.22 223.46 148.759 228.478L163.159 276.109L123.377 281.731Z" fill="#CCCCCC"/>
<path d="M109.515 299.99L90.2177 281.436C88.8982 280.16 87.9402 278.577 87.4359 276.839C86.9315 275.102 86.8978 273.268 87.338 271.514L96.6801 234.744C96.9599 233.643 97.4705 232.608 98.1802 231.705C98.8899 230.802 99.7837 230.049 100.806 229.494C101.829 228.938 102.958 228.592 104.124 228.476C105.291 228.359 106.47 228.476 107.587 228.819C109.718 229.483 111.498 230.924 112.55 232.836C113.602 234.749 113.843 236.982 113.223 239.063L103.387 271.41L119.292 287.935L109.515 299.99Z" fill="#CCCCCC"/>
<path d="M213.022 236.669C212.512 237.737 211.765 238.685 210.836 239.444C209.906 240.204 208.816 240.757 207.641 241.064C206.467 241.372 205.237 241.426 204.039 241.224C202.84 241.022 201.702 240.568 200.704 239.895L174.942 252.814L176.081 241.839L198.92 228.164C200.2 226.617 202.023 225.579 204.042 225.246C206.061 224.912 208.137 225.307 209.875 226.356C211.613 227.404 212.894 229.033 213.474 230.934C214.054 232.834 213.893 234.875 213.022 236.669Z" fill="#FFB8B8"/>
<path d="M197.891 244.838L172.777 255.339C171.106 256.032 169.278 256.298 167.469 256.11C165.661 255.922 163.933 255.288 162.451 254.267L130.516 232.127C129.563 231.466 128.76 230.623 128.157 229.65C127.554 228.677 127.164 227.595 127.011 226.47C126.858 225.345 126.945 224.202 127.267 223.111C127.589 222.02 128.139 221.004 128.883 220.127C130.312 218.46 132.356 217.396 134.582 217.162C136.808 216.928 139.041 217.541 140.807 218.872L168.19 239.725L189.956 231.577L197.891 244.838Z" fill="#CCCCCC"/>
<path d="M128.9 193.695C131.408 190.655 136.092 190.491 139.537 188.486C144.049 185.859 145.914 179.99 144.46 175.093C143.006 170.196 138.718 166.38 133.802 164.555C128.886 162.73 123.416 162.707 118.23 163.59C110.509 164.903 102.907 168.39 98.1977 174.455C93.4884 180.519 92.29 189.401 96.5579 195.764C98.5194 198.689 101.547 201.103 102.331 204.506C103.359 208.974 100.12 213.283 96.6499 216.394C92.6968 219.938 88.1615 222.907 84.6981 226.902C81.2348 230.897 78.9253 236.356 80.5057 241.341C81.8298 245.518 85.6829 248.595 89.9081 250.136C94.1333 251.678 98.7351 251.9 103.25 251.986C107.633 252.069 112.29 251.965 115.983 249.678C119.936 247.23 122.047 242.585 122.203 238.046C122.359 233.507 120.791 229.06 118.69 224.998C117.438 222.578 115.982 220.232 115.15 217.647C114.318 215.063 114.173 212.13 115.506 209.75C116.907 207.248 119.741 205.739 122.627 205.19C122.777 205.162 122.935 205.136 123.101 205.114C123.922 205.011 124.713 204.748 125.426 204.34C126.139 203.933 126.759 203.39 127.249 202.744C127.739 202.099 128.089 201.363 128.277 200.583C128.464 199.803 128.487 198.994 128.342 198.205C128.014 196.432 128.042 194.735 128.9 193.695Z" fill="#2F2E41"/>
<path d="M399.909 454.26H389.763L384.937 416.395L399.911 416.395L399.909 454.26Z" fill="#A0616A"/>
<path d="M382.516 451.455H402.083V463.375H370.196C370.196 461.81 370.514 460.26 371.134 458.814C371.753 457.367 372.66 456.053 373.804 454.946C374.948 453.839 376.306 452.961 377.801 452.362C379.296 451.763 380.898 451.455 382.516 451.455Z" fill="#2F2E41"/>
<path d="M473.526 443.14L464.298 447.218L443.646 414.717L457.268 408.697L473.526 443.14Z" fill="#A0616A"/>
<path d="M456.501 447.581L474.299 439.715L479.418 450.558L450.413 463.376C449.741 461.952 449.365 460.414 449.307 458.85C449.249 457.285 449.511 455.725 450.076 454.258C450.641 452.792 451.5 451.447 452.602 450.301C453.704 449.155 455.029 448.231 456.501 447.581Z" fill="#2F2E41"/>
<path d="M443.979 326.588C444.952 325.88 445.751 324.974 446.323 323.935C446.894 322.896 447.223 321.748 447.286 320.572C447.349 319.397 447.145 318.222 446.689 317.131C446.232 316.04 445.533 315.059 444.643 314.257L456.569 288.073L441.417 290.558L432.415 315.042C431.122 316.579 430.457 318.522 430.546 320.502C430.635 322.482 431.471 324.362 432.897 325.785C434.322 327.208 436.238 328.076 438.281 328.224C440.323 328.372 442.351 327.79 443.979 326.588Z" fill="#A0616A"/>
<path d="M399.262 444.276H389.57C388.63 444.273 387.725 443.927 387.037 443.308C386.349 442.688 385.927 441.841 385.855 440.934L380.57 304.361C380.53 303.837 380.61 303.312 380.802 302.821C380.994 302.331 381.295 301.887 381.683 301.52C382.072 301.154 382.538 300.874 383.049 300.7C383.561 300.526 384.106 300.462 384.646 300.513L440.701 306.273C441.61 306.359 442.454 306.765 443.074 307.414C443.694 308.062 444.046 308.908 444.063 309.791L445.238 370.035C445.244 370.362 445.31 370.686 445.432 370.991L468.426 428.686C468.604 429.132 468.688 429.608 468.674 430.085C468.66 430.563 468.548 431.033 468.344 431.468C468.141 431.903 467.85 432.295 467.488 432.62C467.127 432.946 466.702 433.198 466.239 433.363L456.417 436.865C455.563 437.169 454.625 437.161 453.778 436.841C452.931 436.522 452.233 435.914 451.817 435.132L423.57 381.988C423.416 381.699 423.304 381.391 423.235 381.073L418.41 358.577C418.27 357.925 417.895 357.342 417.351 356.933C416.807 356.525 416.131 356.317 415.443 356.347C414.755 356.377 414.101 356.643 413.598 357.098C413.094 357.552 412.775 358.165 412.696 358.827L402.962 441.082C402.858 441.961 402.424 442.773 401.742 443.362C401.059 443.951 400.177 444.276 399.262 444.276Z" fill="#2F2E41"/>
<path d="M404.089 197.574C415.314 197.574 424.415 188.769 424.415 177.907C424.415 167.045 415.314 158.24 404.089 158.24C392.863 158.24 383.762 167.045 383.762 177.907C383.762 188.769 392.863 197.574 404.089 197.574Z" fill="#A0616A"/>
<path d="M418.028 316.848C404.244 316.701 390.788 312.758 379.237 305.479L379.039 305.347L379.06 305.115L386.835 217.502C387.103 214.529 388.474 211.751 390.695 209.681C392.916 207.611 395.837 206.39 398.917 206.242C408.993 205.794 422.528 206.359 429.773 211.58C440.723 219.471 446 231.353 444.252 244.18C440.627 270.78 444.734 306.661 445.214 310.665L445.249 310.954L444.976 311.075C436.535 314.875 427.338 316.845 418.028 316.848Z" fill="#6C63FF"/>
<path d="M445.12 310.813C444.547 310.813 443.981 310.697 443.456 310.473C442.932 310.249 442.461 309.923 442.074 309.515L437.628 304.821C437.147 304.311 436.811 303.69 436.65 303.018C436.489 302.345 436.51 301.644 436.71 300.982L446.848 267.78L431.422 236.436C430.702 234.969 430.526 233.307 430.923 231.728C431.273 230.343 432.049 229.093 433.148 228.143C434.247 227.193 435.618 226.587 437.081 226.407C438.543 226.226 440.027 226.478 441.338 227.13C442.649 227.783 443.725 228.804 444.423 230.06L465.357 262.924C466.207 264.257 466.706 265.772 466.81 267.335C466.914 268.899 466.619 270.463 465.952 271.89L448.896 308.456C448.615 309.061 448.183 309.588 447.639 309.991C447.095 310.393 446.456 310.658 445.779 310.762C445.561 310.796 445.341 310.813 445.12 310.813Z" fill="#6C63FF"/>
<path d="M301.848 247.391C302.825 248.093 303.948 248.58 305.14 248.817C306.332 249.054 307.562 249.035 308.746 248.762C309.929 248.489 311.036 247.968 311.989 247.236C312.942 246.504 313.717 245.579 314.261 244.526L343.588 248.206L336.849 234.843L310.032 233.397C308.143 232.631 306.029 232.562 304.091 233.204C302.153 233.845 300.525 235.152 299.516 236.877C298.508 238.602 298.188 240.625 298.618 242.563C299.048 244.5 300.197 246.218 301.848 247.391Z" fill="#A0616A"/>
<path d="M366.492 254.689C365.981 254.689 365.471 254.655 364.965 254.587L318.827 248.395C318.073 248.295 317.357 248.015 316.742 247.58C316.128 247.145 315.636 246.569 315.309 245.904C315.204 245.69 315.116 245.468 315.046 245.24C314.868 244.649 314.817 244.028 314.899 243.418C314.981 242.807 315.193 242.219 315.522 241.692L319.34 235.567C319.751 234.912 320.328 234.371 321.017 233.994C321.706 233.617 322.484 233.418 323.276 233.416H323.282L363.499 233.46L393.535 207.423C394.932 206.214 396.717 205.507 398.589 205.421C400.233 205.348 401.861 205.758 403.259 206.598C404.657 207.437 405.759 208.668 406.42 210.126C407.08 211.584 407.269 213.202 406.96 214.766C406.651 216.33 405.86 217.766 404.69 218.886L374.719 251.139C373.682 252.256 372.414 253.149 370.996 253.761C369.579 254.373 368.044 254.689 366.492 254.689Z" fill="#6C63FF"/>
<path d="M406.399 195.403C408.257 191.244 409.829 185.704 406.266 182.763C404.199 181.057 401.223 181.054 398.515 180.842C390.887 180.244 383.035 176.848 379.307 170.381C375.578 163.915 377.66 154.299 384.694 151.381C389.436 149.415 394.871 150.754 399.834 152.116L414.736 156.205C419.163 157.419 423.812 158.759 426.999 161.971C432.083 167.094 431.703 175.753 427.665 181.684C423.628 187.614 417.547 193.8 410.586 196.051L406.399 195.403Z" fill="#2F2E41"/>
<path d="M611.98 463.636H0.985311C0.855668 463.637 0.72723 463.612 0.607347 463.565C0.487465 463.517 0.378506 463.447 0.286702 463.358C0.194898 463.27 0.122056 463.164 0.0723573 463.048C0.0226583 462.933 -0.00292969 462.808 -0.00292969 462.683C-0.00292969 462.557 0.0226583 462.433 0.0723573 462.317C0.122056 462.202 0.194898 462.096 0.286702 462.008C0.378506 461.919 0.487465 461.849 0.607347 461.801C0.72723 461.754 0.855668 461.729 0.985311 461.729H611.98C612.11 461.729 612.238 461.754 612.358 461.801C612.478 461.849 612.587 461.919 612.679 462.008C612.771 462.096 612.843 462.202 612.893 462.317C612.943 462.433 612.968 462.557 612.968 462.683C612.968 462.808 612.943 462.933 612.893 463.048C612.843 463.164 612.771 463.27 612.679 463.358C612.587 463.447 612.478 463.517 612.358 463.565C612.238 463.612 612.11 463.637 611.98 463.636Z" fill="#3F3D56"/>
</g>
<defs>
<clipPath id="clip0_90_16">
<rect width="680" height="463.636" fill="white"/>
</clipPath>
</defs>
</svg>
