<svg width="480" height="480" viewBox="0 0 480 480" fill="none" xmlns="http://www.w3.org/2000/svg">
<g clip-path="url(#clip0_90_118)">
<path d="M456.419 113.961C456.653 113.599 462.461 119.753 467.744 118.487C474.325 116.909 479.139 104.045 475.57 98.542C473.209 94.9004 467.335 94.7292 467.457 94.0462C467.588 93.3154 473.909 95.7651 477.348 92.8391C481.525 89.2846 480.652 78.4741 475.541 72.8038C474.519 71.6693 472.82 69.7849 470.381 69.6357C465.59 69.3425 461.828 75.9811 460.175 78.8991C454.918 88.1761 454.488 97.9092 453.839 97.8181C453.24 97.7338 454.831 89.5888 451.947 87.9211C451.315 87.5558 450.564 87.5609 449.818 87.7424C450.007 87.2285 450.143 86.6994 450.211 86.1554C450.644 82.7251 448.055 79.0786 444.995 76.0217C448.182 78.0085 451.784 79.3861 454.97 78.4007C462.089 76.1993 466.826 62.307 463.083 53.7789C460.47 47.8226 453.804 44.6756 454.024 44.3346C454.257 43.9731 460.065 50.1269 465.348 48.8606C471.929 47.283 476.743 34.4182 473.175 28.9157C470.813 25.2741 464.939 25.1029 465.061 24.4199C465.192 23.6891 471.513 26.1389 474.952 23.2129C479.13 19.6583 478.257 8.84783 473.146 3.17758C472.123 2.04304 470.425 0.158619 467.985 0.00940264C463.194 -0.283768 459.433 6.35489 457.779 9.27284C452.523 18.5499 452.092 28.2829 451.443 28.1918C450.844 28.1075 452.436 19.9625 449.551 18.2948C447.745 17.2506 444.967 19.1986 444.104 19.8036C434.616 26.4566 437.245 40.9232 428.48 56.3139C425.657 61.2694 422.845 64.2285 420.473 66.4669C419.389 52.6868 423.381 42.1086 417.334 34.096C416.689 33.2415 414.612 30.4904 412.589 30.9012C409.357 31.5571 408.498 39.8232 407.903 39.7099C407.259 39.5872 409.686 30.1845 407.387 19.6575C406.664 16.3464 405.019 8.81334 400.374 7.54537C398.008 6.89977 395.842 8.14489 394.538 8.8945C388.021 12.6411 384.039 22.6484 386.979 27.3804C389.399 31.2757 396.13 30.9851 396.041 31.7229C395.958 32.4124 390.318 30.6787 387.008 33.3821C382.008 37.467 382.84 51.2659 388.644 54.8923C393.303 57.8033 400.625 53.8217 400.741 54.2411C400.851 54.6367 393.59 55.4797 389.366 60.3047C387.612 62.3077 386.409 64.9713 385.73 67.8492C379.977 68.3043 375.054 72.6424 374.869 72.3081C374.661 71.9302 382.449 69.0906 383.655 63.5315C385.159 56.6062 376.233 46.4615 369.974 47.4595C365.832 48.12 363.138 53.6162 362.606 53.2041C362.037 52.7632 366.876 47.8308 365.862 43.3006C364.631 37.7973 354.997 33.9368 347.926 36.3247C346.511 36.8025 344.161 37.5961 342.976 39.8447C340.647 44.2613 344.699 50.7077 346.48 53.5411C352.143 62.5494 360.289 67.1789 359.93 67.7544C359.598 68.2863 353.315 63.2445 350.636 65.2568C348.959 66.5168 349.422 69.9962 349.565 71.0769C351.146 82.9604 364.672 86.7407 374.047 101.728C381.682 113.932 378.424 120.556 384.892 123.864C387.669 125.284 391.204 125.559 394.818 124.875C392.021 144.585 391.231 178.293 391.231 178.293C390.441 212.009 386.323 239.777 384.52 239.723C383.519 239.691 383.888 231.198 380.856 217.54C378.727 207.965 377.722 208.406 372.196 191.321C363.427 164.219 359.043 150.672 359.033 150.598C358.987 150.009 358.91 148.82 358.59 147.617C365.081 145.705 371.383 140.808 373.573 133.936C375.324 128.438 374.864 120.272 370.604 117.33C367.855 115.432 363.61 116.306 359.666 117.882C362.749 115.721 365.49 112.903 366.028 109.453C367.231 101.747 357.392 91.2305 348.467 91.0813C342.234 90.9771 336.649 95.9336 336.453 95.5771C336.244 95.1992 344.032 92.3596 345.239 86.8005C346.742 79.8752 337.816 69.7305 331.557 70.7285C327.415 71.389 324.721 76.8852 324.19 76.4731C323.621 76.0322 328.459 71.0998 327.446 66.5696C326.214 61.0664 316.58 57.2059 309.509 59.5938C308.094 60.0715 305.744 60.8651 304.559 63.1137C302.23 67.5304 306.282 73.9767 308.063 76.8101C313.726 85.8184 321.872 90.4479 321.513 91.0234C321.181 91.5554 314.898 86.5135 312.219 88.5258C310.542 89.7858 311.005 93.2653 311.148 94.3459C312.729 106.229 326.255 110.01 335.63 124.997C343.265 137.201 340.007 143.825 346.475 147.133C347.594 147.706 348.839 148.087 350.16 148.3L350.161 148.307C350.73 157.625 366.68 182.667 375.557 218.272C379.979 236.011 382.399 245.688 380.657 259.164C378.937 272.523 374.16 281.54 374.247 287.494C374.253 288.051 374.299 288.564 374.397 289.061L400.614 285.439C400.79 284.905 400.928 284.356 401.038 283.793C403.034 273.657 395.75 258.251 399.451 233.406C402.2 214.97 409.732 199.806 413.243 192.741C417.558 184.053 422.655 175.88 428.16 163.19C431.694 165.238 435.701 166.326 439.677 165.799C445.144 165.076 451.936 161.098 452.607 155.782C453.04 152.351 450.45 148.705 447.391 145.648C450.577 147.635 454.179 149.012 457.366 148.027C464.485 145.826 469.222 131.933 465.479 123.405C462.865 117.449 456.2 114.302 456.419 113.961ZM349.759 123.045C349.74 123.005 350.013 122.88 350.49 122.676C350.041 122.942 349.778 123.085 349.759 123.045ZM436.911 69.3996C436.489 69.0887 436.252 68.9016 436.278 68.866C436.304 68.8305 436.53 69.0357 436.911 69.3996ZM409.723 83.623C410.192 83.3997 410.467 83.2773 410.481 83.3195C410.495 83.3617 410.215 83.4633 409.723 83.623ZM388.176 99.7764C388.156 99.7364 388.43 99.611 388.907 99.4073C388.458 99.6729 388.195 99.8164 388.176 99.7764ZM395.718 171.055C395.088 170.906 402.745 138.313 404 121.009C407.634 118.501 410.619 114.971 411.99 110.667C412.014 110.592 412.035 110.515 412.058 110.44C412.785 110.333 413.508 110.189 414.224 110.012C411.662 116.83 410.232 121.782 410.232 121.782C403.579 144.851 396.292 171.193 395.718 171.055ZM424.293 160.414C422.192 163.806 419.729 167.974 416.339 174.351C407.642 190.688 403.298 198.851 402.156 204.672C401.855 206.226 400.272 214.631 396.642 225.286C394.787 230.723 393.86 233.441 393.154 233.331C391.156 233.011 391.123 211.565 396.653 189.361C397.601 185.581 398.357 183.141 399.793 178.528C402.124 171.002 415.115 129.171 425.334 103.794L425.335 103.791C427.222 101.887 428.634 99.7094 429.327 97.4169C429.548 96.6851 429.673 96.0079 429.722 95.3636C432.166 96.1814 434.73 96.5107 437.282 96.1732C438.708 95.9844 440.225 95.572 441.7 94.9738C437.62 102.585 437.686 113.982 430.875 125.94C423.737 138.473 416.654 138.256 416.627 145.825C416.609 150.851 419.718 156.411 424.296 160.409L424.293 160.414ZM438.673 138.492C438.699 138.457 438.925 138.662 439.307 139.026C438.884 138.715 438.647 138.528 438.673 138.492Z" fill="#F2F2F2"/>
<path d="M164.512 105.901C168.515 105.199 172.871 110.344 174.69 112.493C179.548 118.231 180.562 124.905 180.954 127.738C187.143 172.445 190.238 194.799 177.431 205.196C165.259 215.077 143.011 212.428 138.675 203.548C136.986 200.089 138.398 196.471 140.632 189.54C144.761 176.73 147.195 163.379 150.811 150.398C159.065 120.759 158.372 106.978 164.512 105.901Z" fill="#2F2E41"/>
<path d="M55.2913 272.766L35.8123 311.461C30.8398 321.338 7.31061 473.496 17.7742 475.413L63.0984 476.996L81.904 478.034L101.234 478.327L149.147 480L122.233 281.831L55.2913 272.766Z" fill="#2F2E41"/>
<path d="M103.247 159.257L142.002 160.905L145.134 174.501L154.467 182.514C157.899 185.461 159.582 190.106 158.886 194.709L154.53 223.531C154.53 223.531 162.75 244.131 142.002 257.316L121.254 292.749L49.2236 284.921C49.2236 284.921 42.5686 284.097 47.2663 279.153C51.9639 274.208 57.836 249.9 57.836 249.9C57.836 249.9 57.0531 239.187 59.7934 236.303C62.5337 233.419 60.6256 226.003 60.6256 226.003L71.7719 182.639C73.9439 174.189 81.2284 168.321 89.5455 168.321H101.906L103.247 159.257Z" fill="#7272FF"/>
<path d="M401.383 436.527L62.9154 341.322C55.6842 339.287 50.6452 333.164 49.7647 325.341C48.8843 317.518 52.4249 310.325 59.0043 306.57L196.556 228.056C200.032 226.071 204.096 225.35 207.998 226.028L435.352 265.475C440.205 266.317 444.411 269.132 447.195 273.401C449.979 277.669 450.962 282.811 449.964 287.881L423.527 422.153C422.517 427.278 419.63 431.614 415.398 434.361C412.528 436.224 409.317 437.177 406.049 437.177C404.496 437.177 402.93 436.962 401.383 436.527Z" fill="white"/>
<path d="M401.383 436.527L62.9154 341.322C55.6842 339.287 50.6452 333.164 49.7647 325.341C48.8843 317.518 52.4249 310.325 59.0043 306.57L196.556 228.056C200.032 226.071 204.096 225.35 207.998 226.028L435.352 265.475C440.205 266.317 444.411 269.132 447.195 273.401C449.979 277.669 450.962 282.811 449.964 287.881L423.527 422.153C422.517 427.278 419.63 431.614 415.398 434.361C412.528 436.224 409.317 437.177 406.049 437.177C404.496 437.177 402.93 436.962 401.383 436.527ZM435.048 267.415L207.694 227.968C204.199 227.361 200.56 228.006 197.446 229.784L59.8951 308.297C54.0021 311.661 50.8309 318.103 51.6195 325.11C52.4081 332.116 56.9212 337.6 63.3976 339.422L401.865 434.628C406.168 435.837 410.626 435.149 414.417 432.688C418.208 430.227 420.794 426.344 421.698 421.753L448.135 287.482C449.029 282.942 448.148 278.336 445.655 274.513C443.162 270.69 439.395 268.169 435.048 267.415Z" fill="#CCCCCC"/>
<path d="M385.875 304.379L355.691 384.542C352.765 392.313 344.549 396.29 337.038 393.57L115.177 313.228C102.927 308.792 101.558 291.133 112.963 284.666L184.363 244.182C187.469 242.421 191.069 241.88 194.52 242.657L375.167 283.319C384.156 285.343 389.262 295.384 385.875 304.379Z" fill="#F2F2F2"/>
<path d="M327.756 317.676C334.674 317.676 340.283 314.724 340.283 311.084C340.283 307.443 334.674 304.491 327.756 304.491C320.837 304.491 315.229 307.443 315.229 311.084C315.229 314.724 320.837 317.676 327.756 317.676Z" fill="#FF6884"/>
<path d="M316.012 337.865C322.93 337.865 328.539 334.913 328.539 331.272C328.539 327.632 322.93 324.68 316.012 324.68C309.093 324.68 303.485 327.632 303.485 331.272C303.485 334.913 309.093 337.865 316.012 337.865Z" fill="#3F3D56"/>
<path d="M248.678 322.002C267.488 322.002 282.736 313.978 282.736 304.079C282.736 294.181 267.488 286.157 248.678 286.157C229.869 286.157 214.62 294.181 214.62 304.079C214.62 313.978 229.869 322.002 248.678 322.002Z" fill="#7272FF"/>
<path d="M189.566 303.256C190.049 303.256 190.502 302.939 190.673 302.432C190.89 301.789 190.57 301.082 189.958 300.854L165.106 291.584C164.496 291.357 163.824 291.692 163.607 292.336C163.39 292.98 163.71 293.686 164.322 293.914L189.174 303.185C189.304 303.233 189.436 303.256 189.566 303.256Z" fill="#3F3D56"/>
<path d="M195.047 298.724C195.53 298.724 195.983 298.407 196.154 297.9C196.37 297.257 196.05 296.55 195.439 296.322L170.587 287.052C169.977 286.824 169.305 287.16 169.087 287.804C168.871 288.448 169.191 289.154 169.802 289.382L194.655 298.652C194.784 298.701 194.917 298.724 195.047 298.724Z" fill="#3F3D56"/>
<path d="M200.527 294.191C201.011 294.191 201.464 293.875 201.635 293.368C201.851 292.724 201.531 292.018 200.92 291.79L176.067 282.52C175.457 282.293 174.785 282.628 174.568 283.272C174.351 283.915 174.671 284.622 175.283 284.85L200.135 294.12C200.265 294.169 200.397 294.191 200.527 294.191Z" fill="#3F3D56"/>
<path d="M206.008 289.659C206.491 289.659 206.944 289.343 207.115 288.836C207.332 288.192 207.012 287.486 206.4 287.258L181.548 277.987C180.938 277.76 180.265 278.096 180.049 278.74C179.832 279.383 180.152 280.09 180.763 280.318L205.616 289.588C205.745 289.636 205.878 289.659 206.008 289.659Z" fill="#3F3D56"/>
<path d="M211.489 285.127C211.972 285.127 212.425 284.811 212.596 284.304C212.812 283.66 212.492 282.954 211.881 282.726L187.028 273.455C186.419 273.228 185.746 273.564 185.529 274.208C185.313 274.851 185.633 275.558 186.244 275.786L211.096 285.056C211.226 285.104 211.358 285.127 211.489 285.127Z" fill="#3F3D56"/>
<path d="M216.969 280.595C217.452 280.595 217.905 280.278 218.076 279.771C218.293 279.128 217.973 278.422 217.361 278.193L192.509 268.923C191.899 268.696 191.227 269.032 191.01 269.675C190.793 270.319 191.113 271.025 191.725 271.254L216.577 280.524C216.707 280.572 216.839 280.595 216.969 280.595Z" fill="#3F3D56"/>
<path d="M222.45 276.063C222.933 276.063 223.386 275.746 223.557 275.239C223.773 274.596 223.453 273.889 222.842 273.661L197.99 264.391C197.38 264.164 196.708 264.5 196.49 265.143C196.274 265.787 196.594 266.493 197.205 266.721L222.058 275.992C222.187 276.04 222.32 276.063 222.45 276.063Z" fill="#3F3D56"/>
<path d="M138.675 172.647C156.404 172.647 170.776 157.521 170.776 138.862C170.776 120.203 156.404 105.077 138.675 105.077C120.946 105.077 106.574 120.203 106.574 138.862C106.574 157.521 120.946 172.647 138.675 172.647Z" fill="#A0616A"/>
<path d="M145.33 88.5964C136.292 87.0459 131.438 86.2132 126.539 87.3604C116.725 89.6585 111.032 98.8932 106.966 105.489C97.242 121.262 101.638 127.891 92.0896 149.986C85.2399 165.837 81.7865 165.182 81.1284 173.471C79.747 190.871 93.8108 208.277 108.923 215.085C109.932 215.539 125.637 222.456 130.062 216.733C133.306 212.537 127.576 205.315 120.667 185.832C108.519 151.573 114.259 140.123 115.969 137.214C117.05 135.376 120.132 130.809 121.841 131.446C123.388 132.022 122.049 136.202 123.407 139.686C127.046 149.02 149.161 151.092 166.469 143.806C171.574 141.658 174.706 140.339 177.039 136.802C184.956 124.8 175.505 99.6483 160.597 92.3046C157.206 90.6339 153.247 89.9548 145.33 88.5964Z" fill="#2F2E41"/>
<path d="M122.378 289.888C130.186 294.056 134.471 301.674 131.95 306.903C129.429 312.132 121.057 312.991 113.248 308.821C110.107 307.2 107.38 304.811 105.296 301.853L72.4277 283.755L80.8263 267.702L112.336 287.249C115.836 287.272 119.279 288.177 122.378 289.888Z" fill="#A0616A"/>
<path d="M276.1 266.601C284.324 269.758 289.443 276.783 287.533 282.292C285.623 287.8 277.409 289.705 269.182 286.545C265.879 285.331 262.901 283.302 260.496 280.627L225.811 266.788L232.328 249.795L265.83 265.242C269.307 264.826 272.829 265.292 276.1 266.601Z" fill="#A0616A"/>
<path d="M85.0433 176.767C85.0433 176.767 78.3882 162.347 63.1208 173.471C47.8534 184.596 11.4465 230.741 11.4465 230.741C11.4465 230.741 -7.34412 248.046 3.22563 254.226C13.7954 260.406 89.7409 296.251 89.7409 296.251L108.923 282.243L40.8069 245.574L79.9341 214.673L85.0433 176.767Z" fill="#7272FF"/>
<path d="M151.594 185.42C151.594 185.42 156.251 178.415 164.492 185.42C172.733 192.424 196.451 232.754 196.451 232.754L254.942 257.934L246.33 276.475L176.256 250.106L145.721 206.432L151.594 185.42Z" fill="#7272FF"/>
<path d="M147.874 172.853C138.997 177.624 143.082 184.95 142.785 186.45C139.9 201.056 150.447 216.185 154.529 215.291C156.924 214.766 158.183 208.488 157.661 203.754C156.985 197.618 162.592 187.904 161.967 183.566C160.435 172.922 169.679 172.723 167.84 168.733C166.761 166.395 153.165 170.01 147.874 172.853Z" fill="#2F2E41"/>
<path d="M250.783 322.95C250.82 322.95 250.857 322.948 250.894 322.943C251.406 322.88 251.772 322.391 251.712 321.851L249.606 303.14C249.577 302.881 249.451 302.645 249.256 302.484C249.061 302.322 248.814 302.25 248.567 302.28L215.127 306.513C214.615 306.577 214.249 307.067 214.311 307.606C214.373 308.145 214.838 308.532 215.35 308.464L247.861 304.35L249.857 322.083C249.913 322.583 250.316 322.95 250.783 322.95Z" fill="white"/>
<path d="M78.585 341.022C88.2131 341.022 96.0183 332.807 96.0183 322.674C96.0183 312.54 88.2131 304.326 78.585 304.326C68.9568 304.326 61.1516 312.54 61.1516 322.674C61.1516 332.807 68.9568 341.022 78.585 341.022Z" fill="#7272FF"/>
<path d="M70.6642 319.812L76.2675 330.183C76.6009 330.8 77.5583 330.845 77.8804 330.183C80.0688 325.685 83.1596 321.703 86.9695 318.618C87.3722 318.291 87.5766 317.776 87.3045 317.273C87.0793 316.856 86.4258 316.597 86.0268 316.92C81.9574 320.216 78.6108 324.375 76.2675 329.191H77.8804L72.277 318.82C71.6829 317.72 70.0685 318.709 70.6642 319.812Z" fill="white"/>
</g>
<defs>
<clipPath id="clip0_90_118">
<rect width="480" height="480" fill="white"/>
</clipPath>
</defs>
</svg>
